<?xml version="1.0" encoding="utf-8"?>
<!-- Generator: Adobe Illustrator 24.1.2, SVG Export Plug-In . SVG Version: 6.00 Build 0)  -->
<svg version="1.1" id="Layer_1" xmlns="http://www.w3.org/2000/svg" xmlns:xlink="http://www.w3.org/1999/xlink" x="0px" y="0px"
	 viewBox="0 0 343.6 73.5" style="enable-background:new 0 0 343.6 73.5;" xml:space="preserve">
<g>
	<path d="M186,59V9.8L198.3,0v15.5h11.5v10.8h-11.5v29.6c0,3.9,1.9,6.7,5.4,6.7c2.3,0,4.6-0.9,5.5-2l2.9,9.3
		c-2.2,2.1-5.9,3.6-11.6,3.6C191.1,73.5,186,68.3,186,59"/>
	<path d="M0,43.7C0,26.6,12.1,14,29.3,14c11,0,17.7,4.7,21.7,10.1l-8.1,7.5c-3.2-4.5-7.5-6.7-13-6.7c-10.3,0-17.1,7.7-17.1,18.8
		c0,11,6.8,18.9,17.1,18.9c5.5,0,9.9-2.3,13-6.7l8.1,7.5c-4,5.4-10.7,10.1-21.7,10.1C12.1,73.5,0,61,0,43.7"/>
	<path d="M84.5,24.1c-10.6,0-15.4,8.1-15.9,15h31.9C100.2,32.5,95.7,24.1,84.5,24.1 M55.8,43.7c0-16.4,12-29.7,28.7-29.7
		c17,0,27.9,13,27.9,30.8v2.9H68.7c0.9,8.6,7.4,15.6,18.1,15.6c5.5,0,12.1-2.2,16.1-6.2l5.6,8.1c-5.6,5.4-14,8.2-23,8.2
		C68.5,73.5,55.8,61.7,55.8,43.7"/>
	<path d="M160.2,72.1V37.7c0-9.8-3.6-12.5-10.9-11.8c-6.1,0.6-15,7.5-15,16.5v29.7h-12.3V60.8l0-21.3c0-5.2,2.8-12.7,9.7-17.8
		c7.6-5.7,15.7-7.7,22.6-7.6c11.5,0.1,18.3,6.4,18.3,20.2v37.8H160.2z"/>
	<rect x="222.8" y="15.5" width="12.3" height="56.6"/>
	<path d="M249.3,72.1V38.2c0-3.1,1.1-10.2,7.2-15.5c7.5-6.5,16.1-8.5,23.5-8.5V26c-1-0.1-2.2-0.1-3.9,0c-6.5,0.2-14.5,6.5-14.5,14.3
		v31.8H249.3z"/>
	<path d="M326.7,43.7c0-10-5.9-18.8-16.4-18.8c-10.4,0-16.3,8.8-16.3,18.8c0,10.1,5.9,18.9,16.3,18.9
		C320.8,62.6,326.7,53.8,326.7,43.7 M281.2,43.7c0-16.2,11.1-29.7,29.1-29.7c18.2,0,29.2,13.5,29.2,29.7c0,16.3-11,29.8-29.2,29.8
		C292.3,73.5,281.2,60,281.2,43.7"/>
	<path d="M336,7.3v2.6h1.9c0.6,0,1.3-0.5,1.3-1.3c0-0.8-0.7-1.3-1.3-1.3H336z M337.2,10.7H336v2.8h-1V6.4h2.9c1.2,0,2.3,0.8,2.3,2.2
		c0,1.6-1.4,2.1-1.8,2.1l1.9,2.8h-1.2L337.2,10.7z M332,10c0,2.9,2.4,5.3,5.3,5.3c2.9,0,5.3-2.4,5.3-5.3c0-3-2.4-5.3-5.3-5.3
		C334.4,4.7,332,7,332,10 M331.2,10c0-3.5,2.8-6.2,6.2-6.2c3.5,0,6.2,2.7,6.2,6.2c0,3.4-2.7,6.2-6.2,6.2
		C333.9,16.2,331.2,13.4,331.2,10"/>
</g>
</svg>
