<?xml version="1.0" encoding="UTF-8" standalone="no"?>
<svg width="786px" height="132px" viewBox="0 0 786 132" version="1.1" xmlns="http://www.w3.org/2000/svg" xmlns:xlink="http://www.w3.org/1999/xlink">
    <!-- Generator: Sketch 40.1 (33804) - http://www.bohemiancoding.com/sketch -->
    <title>Slice 1</title>
    <desc>Created with Sketch.</desc>
    <defs></defs>
    <g id="Page-1" stroke="none" stroke-width="1" fill="none" fill-rule="evenodd">
        <g id="deliveree-logo-menu" transform="translate(1.000000, 0.000000)">
            <g id="g10" transform="translate(389.000000, 62.706670) scale(1, -1) translate(-389.000000, -62.706670) translate(0.000000, 0.706670)">
                <g id="g12">
                    <g id="g14-Clipped">
                        <g id="g14" transform="translate(-0.000004, 0.666656)">
                            <g id="g20" transform="translate(2.215467, 4.895200)" fill="#ea2939" >
                                <path d="M33.3333325,65.3333317 C19.8013328,65.3333317 12.9399997,56.3466653 12.9399997,38.6213324 C12.9399997,20.5439995 19.6106662,11.7559997 33.3333325,11.7559997 C45.4133322,11.7559997 52.3399987,19.0773329 52.3399987,31.8413325 L52.3399987,52.8159987 C51.4839987,54.6226653 45.8759989,65.3333317 33.3333325,65.3333317 M33.3333325,0.151999996 C11.7946664,0.151999996 0.410666656,13.4546663 0.410666656,38.6213324 C0.410666656,63.6879984 11.5826664,76.9373314 32.7173325,76.9373314 C41.3826656,76.9373314 48.2066655,73.1746648 52.3399987,69.1466649 L52.3399987,108.271997 C52.3399987,111.783997 55.0919986,114.535997 58.6053319,114.535997 C62.1173318,114.535997 64.8693317,111.783997 64.8693317,108.271997 L64.8693317,31.8413325 C64.8693317,11.9986664 53.0799987,0.151999996 33.3333325,0.151999996" id="path22"></path>
                            </g>
                            <g id="g24" transform="translate(0.882133, 3.317733)" fill="#ea2939">
                                <path d="M34.6666658,14.6666663 C26.4839993,14.6666663 15.6066663,17.3133329 15.6066663,40.1986657 C15.6066663,57.2759986 21.8413328,65.5773317 34.6666658,65.5773317 C45.8933322,65.5773317 51.2186654,56.3199986 52.3399987,54.0839986 L52.3399987,33.4186658 C52.3399987,21.3266661 46.0639988,14.6666663 34.6666658,14.6666663 M59.9386652,117.446664 C55.6773319,117.446664 52.3399987,114.10933 52.3399987,109.849331 L52.3399987,73.6413315 C47.9533321,77.0506647 41.6773323,79.847998 34.0506658,79.847998 C18.7039995,79.847998 0.410666656,72.9693315 0.410666656,40.1986657 C0.410666656,14.5319996 12.5759997,0.39599999 34.6666658,0.39599999 C44.3066656,0.39599999 52.4386654,3.25733325 58.1839985,8.67199978 C64.3026651,14.4386663 67.5359983,22.9959994 67.5359983,33.4186658 L67.5359983,109.849331 C67.5359983,114.10933 64.1986651,117.446664 59.9386652,117.446664 M34.6666658,11.9999997 C46.5319988,11.9999997 55.0066653,18.7799995 55.0066653,33.4186658 L55.0066653,54.6839986 C55.0066653,54.6839986 49.1519988,68.2439983 34.6666658,68.2439983 C20.6439995,68.2439983 12.9399997,59.1519985 12.9399997,40.1986657 C12.9399997,20.9373328 20.4906662,11.9999997 34.6666658,11.9999997 M59.9386652,114.779997 C62.7119984,114.779997 64.8693317,112.622664 64.8693317,109.849331 L64.8693317,33.4186658 C64.8693317,13.0786663 52.233332,3.06266659 34.6666658,3.06266659 C14.7879996,3.06266659 3.07733326,14.9279996 3.07733326,40.1986657 C3.07733326,65.470665 14.1719996,77.1813314 34.0506658,77.1813314 C43.9119989,77.1813314 51.4626654,72.0959982 55.0066653,67.1653317 L55.0066653,109.849331 C55.0066653,112.622664 57.1639986,114.779997 59.9386652,114.779997" id="path26"></path>
                            </g>
                            <g id="g28" transform="translate(84.053998, 3.884800)" fill="#ea2939">
                                <path d="M51.9999987,46.6666655 C51.6119987,59.7253318 45.4373322,66.3439983 33.6293325,66.3439983 C21.8266661,66.3439983 14.6679996,59.3719985 13.353333,46.6666655 L51.9999987,46.6666655 Z M35.1693325,1.16266664 C12.5226664,1.16266664 0.551999986,14.465333 0.551999986,39.631999 C0.551999986,63.9826651 12.6079997,77.9479981 33.6293325,77.9479981 C62.9106651,77.9479981 64.3933317,51.8066654 64.3933317,46.5666655 C64.3933317,42.1079989 64.3933317,35.3706658 56.8973319,35.3706658 L13.2586663,35.3706658 C13.7546663,21.4839995 22.0546661,12.9199997 35.1693325,12.9199997 C43.6706656,12.9199997 48.5706655,16.0613329 52.861332,19.2786662 C54.0626653,20.0839995 54.9199986,20.4706662 56.4346653,20.4706662 C59.6333318,20.4706662 62.2359984,17.8679996 62.2359984,14.6679996 C62.2359984,12.453333 61.1599985,11.1906664 60.1506652,10.1826664 C58.6453319,8.67599978 50.3639987,1.16266664 35.1693325,1.16266664 L35.1693325,1.16266664 Z" id="path30"></path>
                            </g>
                            <g id="g32" transform="translate(82.919331, 2.551467)" fill="#ea2939">
                                <path d="M15.9999996,49.3333321 C17.6266662,60.3333318 24.2079994,66.3439983 34.7639991,66.3439983 C45.4426655,66.3439983 51.0146654,60.7719985 51.7399987,49.3333321 L15.9999996,49.3333321 Z M34.7639991,80.6146647 C24.0959994,80.6146647 15.313333,76.9786647 9.36266643,70.0999982 C3.38533325,63.1893318 0.353333325,53.3866653 0.353333325,40.9653323 C0.353333325,27.7359993 3.61466658,17.6039996 10.0453331,10.8506664 C16.1666663,4.42133322 25.0013327,1.16266664 36.3053324,1.16266664 C52.025332,1.16266664 60.6586652,9.00133311 62.2293318,10.5733331 C63.0933318,11.4386664 64.7039984,13.0479997 64.7039984,16.0013329 C64.7039984,19.9359995 61.5026651,23.1373328 57.5693319,23.1373328 C55.5426653,23.1373328 54.3999986,22.4879994 53.3159987,21.7653328 L53.2546653,21.7239995 L53.1946653,21.6799995 C49.0853321,18.5973329 44.3946656,15.5866663 36.3053324,15.5866663 C24.2426661,15.5866663 16.7253329,22.9253328 15.7999996,35.3706658 L58.0319985,35.3706658 C66.8613317,35.3706658 66.8613317,43.5213322 66.8613317,47.8999988 C66.8613317,51.4626654 66.282665,60.5879985 60.9199985,68.366665 C55.3959986,76.3799981 46.3519988,80.6146647 34.7639991,80.6146647 L34.7639991,80.6146647 Z M13.0359997,46.6666655 L54.4879986,46.6666655 C54.4879986,57.7613319 50.6346654,69.0106649 34.7639991,69.0106649 C21.3573328,69.0106649 13.961333,60.3813318 13.0359997,46.6666655 L13.0359997,46.6666655 Z M34.7639991,77.9479981 C59.4186652,77.9479981 64.1946651,58.3773319 64.1946651,47.8999988 C64.1946651,43.4306656 64.1946651,38.0373324 58.0319985,38.0373324 L13.0359997,38.0373324 C13.0359997,22.7826661 21.8199995,12.9199997 36.3053324,12.9199997 C45.2413322,12.9199997 50.4813321,16.3106663 54.7959986,19.5466662 C55.7199986,20.1626662 56.3359986,20.4706662 57.5693319,20.4706662 C60.0346652,20.4706662 62.0373318,18.4679995 62.0373318,16.0013329 C62.0373318,14.3066663 61.2679985,13.3826663 60.3426652,12.4586664 C58.0319985,10.1466664 50.0186654,3.82933324 36.3053324,3.82933324 C15.8093329,3.82933324 3.01999992,15.077333 3.01999992,40.9653323 C3.01999992,64.6959984 14.7306663,77.9479981 34.7639991,77.9479981 L34.7639991,77.9479981 Z" id="path34"></path>
                            </g>
                            <g id="g36" transform="translate(164.506529, 5.817733)" fill="#ea2939">
                                <path d="M18.6666662,0 C7.47199981,0 1.30799997,6.87599983 1.30799997,19.3613328 L1.30799997,107.349331 C1.30799997,110.686664 4.23466656,113.61333 7.57199981,113.61333 C11.0266664,113.61333 13.8359997,110.803997 13.8359997,107.349331 L13.8359997,19.3613328 C13.8359997,12.8146663 16.1586663,11.9119997 18.6666662,11.9119997 C21.9506661,11.9119997 24.6226661,9.23999977 24.6226661,5.95599985 C24.6226661,2.67199993 21.9506661,0 18.6666662,0" id="path38"></path>
                            </g>
                            <g id="g40" transform="translate(164.078796, 3.430933)" fill="#ea2939">
                                <path d="M7.9999998,117.33333 C3.88133324,117.33333 0.402666657,113.854664 0.402666657,109.735997 L0.402666657,21.7493328 C0.402666657,8.59599979 7.21599982,1.05333331 19.0946662,1.05333331 C23.1133328,1.05333331 26.3839993,4.32266656 26.3839993,8.34266646 C26.3839993,12.361333 23.1133328,15.6319996 19.0946662,15.6319996 C17.6186662,15.6319996 15.5973329,15.6319996 15.5973329,21.7493328 L15.5973329,109.735997 C15.5973329,113.92533 12.189333,117.33333 7.9999998,117.33333 M7.9999998,114.666664 C10.7733331,114.666664 12.9306663,112.355997 12.9306663,109.735997 L12.9306663,21.7493328 C12.9306663,15.5839996 14.9346663,12.965333 19.0946662,12.965333 C21.5599995,12.965333 23.7173327,10.9626664 23.7173327,8.34266646 C23.7173327,5.72266652 21.5599995,3.71999991 19.0946662,3.71999991 C8.77066645,3.71999991 3.06933326,9.88399975 3.06933326,21.7493328 L3.06933326,109.735997 C3.06933326,112.355997 5.37999987,114.666664 7.9999998,114.666664" id="path42"></path>
                            </g>
                            <g id="g44" transform="translate(202.448528, 4.725867)" fill="#ea2939">
                                <path d="M7.9999998,87.9999978 C3.56533324,87.9999978 0.810666646,90.7546644 0.810666646,95.189331 C0.810666646,100.093331 3.29733325,102.686664 7.9999998,102.686664 C12.7026663,102.686664 15.189333,100.093331 15.189333,95.189331 C15.189333,90.7546644 12.4346664,87.9999978 7.9999998,87.9999978 M7.9999998,1.09199997 C4.48666655,1.09199997 1.73599996,3.84266657 1.73599996,7.35599982 L1.73599996,69.9173316 C1.73599996,73.4306648 4.48666655,76.1826648 7.9999998,76.1826648 C11.513333,76.1826648 14.2639996,73.4306648 14.2639996,69.9173316 L14.2639996,7.35599982 C14.2639996,3.84266657 11.513333,1.09199997 7.9999998,1.09199997" id="path46"></path>
                            </g>
                            <g id="g48" transform="translate(201.115195, 3.574933)" fill="#ea2939">
                                <path d="M9.3333331,78.6666647 C5.07333321,78.6666647 1.73599996,75.3293315 1.73599996,71.0693316 L1.73599996,8.50666645 C1.73599996,4.24666656 5.07333321,0.909333311 9.3333331,0.909333311 C13.593333,0.909333311 16.9306662,4.24666656 16.9306662,8.50666645 L16.9306662,71.0693316 C16.9306662,75.3293315 13.593333,78.6666647 9.3333331,78.6666647 M9.3333331,105.170664 C3.83733324,105.170664 0.810666646,102.034664 0.810666646,96.3399976 C0.810666646,91.1626644 4.1559999,87.8173311 9.3333331,87.8173311 C14.5106663,87.8173311 17.8559996,91.1626644 17.8559996,96.3399976 C17.8559996,102.034664 14.829333,105.170664 9.3333331,105.170664 M9.3333331,75.9999981 C12.1066664,75.9999981 14.2639996,73.8426648 14.2639996,71.0693316 L14.2639996,8.50666645 C14.2639996,5.73333319 12.1066664,3.57599991 9.3333331,3.57599991 C6.55999984,3.57599991 4.40266656,5.73333319 4.40266656,8.50666645 L4.40266656,71.0693316 C4.40266656,73.8426648 6.55999984,75.9999981 9.3333331,75.9999981 M9.3333331,102.503997 C13.0306663,102.503997 15.189333,100.807997 15.189333,96.3399976 C15.189333,92.641331 13.0306663,90.4839977 9.3333331,90.4839977 C5.63599986,90.4839977 3.47733325,92.641331 3.47733325,96.3399976 C3.47733325,100.807997 5.63599986,102.503997 9.3333331,102.503997" id="path50"></path>
                            </g>
                            <g id="g52" transform="translate(230.585994, 5.817733)" fill="#ea2939">
                                <path d="M33.3333325,0 C30.7573326,0 28.630666,1.4053333 27.4999993,3.8559999 L1.2853333,66.1519983 L1.17466664,66.454665 C0.993333309,66.946665 0.718666649,67.690665 0.718666649,68.8266649 C0.718666649,72.3386649 3.47066658,75.0906648 6.98266649,75.0906648 C8.91333311,75.0906648 11.497333,74.3839981 12.8439997,71.0159982 L33.3333325,20.8826661 L53.8266653,71.0253316 C55.1679986,74.3839981 57.7519986,75.0906648 59.6826652,75.0906648 C63.1959984,75.0906648 65.946665,72.3386649 65.946665,68.8266649 C65.946665,67.690665 65.6719984,66.946665 65.4919984,66.454665 L65.4173317,66.246665 L39.1853324,3.89733324 C38.0346657,1.4053333 35.9093324,0 33.3333325,0" id="path54"></path>
                            </g>
                            <g id="g56" transform="translate(228.935594, 3.574933)" fill="#ea2939">
                                <path d="M61.3333318,78.6666647 C58.0226652,78.6666647 55.5013319,76.9213314 54.2346653,73.7533315 L34.9839991,26.650666 L15.7253329,73.7733315 C14.465333,76.9213314 11.9439997,78.6666647 8.63333312,78.6666647 C4.37333322,78.6666647 1.03599997,75.3293315 1.03599997,71.0693316 C1.03599997,69.6946649 1.3733333,68.7813316 1.57466663,68.2359983 L1.63599996,68.066665 L1.66666662,67.970665 L1.70666662,67.8773316 L27.902666,5.62266653 L27.9199993,5.58133319 L27.9399993,5.53999986 C29.2773326,2.63999993 31.9106659,0.909333311 34.9839991,0.909333311 C38.055999,0.909333311 40.6893323,2.63999993 42.0279989,5.53999986 L42.0466656,5.58133319 L42.0639989,5.62266653 L68.2599983,67.8773316 L68.2999983,67.970665 L68.3319983,68.066665 L68.3919983,68.2359983 C68.5933316,68.7813316 68.9306649,69.6946649 68.9306649,71.0693316 C68.9306649,75.3293315 65.5933317,78.6666647 61.3333318,78.6666647 M61.3333318,75.9999981 C64.1066651,75.9999981 66.2639983,73.8426648 66.2639983,71.0693316 C66.2639983,69.9906649 65.9559984,69.3733316 65.802665,68.9119983 L39.6066657,6.65733317 C38.6813324,4.65466655 36.9866657,3.57599991 34.9839991,3.57599991 C32.9799992,3.57599991 31.2853326,4.65466655 30.3613326,6.65733317 L4.16533323,68.9119983 C4.01066657,69.3733316 3.70266657,69.9906649 3.70266657,71.0693316 C3.70266657,73.8426648 5.85999985,75.9999981 8.63333312,75.9999981 C11.4066664,75.9999981 12.6399997,74.3053315 13.2559997,72.7639982 L34.9839991,19.6013328 L56.7106652,72.7639982 C57.3266652,74.3053315 58.5599985,75.9999981 61.3333318,75.9999981" id="path58"></path>
                            </g>
                            <g id="g60" transform="translate(305.951192, 3.884800)" fill="#ea2939">
                                <path d="M51.9999987,46.6666655 C51.6119987,59.7253318 45.4373322,66.3439983 33.6293325,66.3439983 C21.8266661,66.3439983 14.6679996,59.3719985 13.353333,46.6666655 L51.9999987,46.6666655 Z M35.1693325,1.16266664 C12.5226664,1.16266664 0.551999986,14.465333 0.551999986,39.631999 C0.551999986,63.9826651 12.6079997,77.9479981 33.6293325,77.9479981 C62.9106651,77.9479981 64.3933317,51.8066654 64.3933317,46.5666655 C64.3933317,42.1079989 64.3933317,35.3706658 56.8973319,35.3706658 L13.2586663,35.3706658 C13.7546663,21.4839995 22.0546661,12.9199997 35.1693325,12.9199997 C43.6706656,12.9199997 48.5706655,16.0613329 52.861332,19.2786662 C54.0626653,20.0839995 54.9199986,20.4706662 56.4346653,20.4706662 C59.6333318,20.4706662 62.2359984,17.8679996 62.2359984,14.6679996 C62.2359984,12.453333 61.1599985,11.1906664 60.1506652,10.1826664 C58.6453319,8.67599978 50.3639987,1.16266664 35.1693325,1.16266664 L35.1693325,1.16266664 Z" id="path62"></path>
                            </g>
                            <g id="g64" transform="translate(304.816392, 2.551467)" fill="#ea2939">
                                <path d="M15.9999996,49.3333321 C17.6266662,60.3333318 24.2079994,66.3439983 34.7639991,66.3439983 C45.4426655,66.3439983 51.0159987,60.7719985 51.7399987,49.3333321 L15.9999996,49.3333321 Z M34.7639991,80.6146647 C24.0959994,80.6146647 15.313333,76.9786647 9.36266643,70.0999982 C3.38533325,63.1893318 0.353333325,53.3866653 0.353333325,40.9653323 C0.353333325,27.7359993 3.61466658,17.6039996 10.0453331,10.8506664 C16.1666663,4.42133322 25.0013327,1.16266664 36.3053324,1.16266664 C52.025332,1.16266664 60.6586652,9.00133311 62.2293318,10.5733331 C63.0933318,11.4386664 64.7039984,13.0479997 64.7039984,16.0013329 C64.7039984,19.9359995 61.5026651,23.1373328 57.5693319,23.1373328 C55.5413319,23.1373328 54.3999986,22.4879994 53.3159987,21.7653328 L53.2546653,21.7239995 L53.1946653,21.6799995 C49.0853321,18.5973329 44.3946656,15.5866663 36.3053324,15.5866663 C24.2426661,15.5866663 16.7253329,22.9253328 15.7999996,35.3706658 L58.0319985,35.3706658 C66.8613317,35.3706658 66.8613317,43.5213322 66.8613317,47.8999988 C66.8613317,51.4626654 66.282665,60.5879985 60.9199985,68.366665 C55.3959986,76.3799981 46.3519988,80.6146647 34.7639991,80.6146647 L34.7639991,80.6146647 Z M13.0359997,46.6666655 L54.4879986,46.6666655 C54.4879986,57.7613319 50.6346654,69.0106649 34.7639991,69.0106649 C21.3573328,69.0106649 13.961333,60.3813318 13.0359997,46.6666655 L13.0359997,46.6666655 Z M34.7639991,77.9479981 C59.4186652,77.9479981 64.1946651,58.3773319 64.1946651,47.8999988 C64.1946651,43.4306656 64.1946651,38.0373324 58.0319985,38.0373324 L13.0359997,38.0373324 C13.0359997,22.7826661 21.8199995,12.9199997 36.3053324,12.9199997 C45.2413322,12.9199997 50.4813321,16.3106663 54.7959986,19.5466662 C55.7199986,20.1626662 56.3359986,20.4706662 57.5693319,20.4706662 C60.0346652,20.4706662 62.0373318,18.4679995 62.0373318,16.0013329 C62.0373318,14.3066663 61.2679985,13.3826663 60.3426652,12.4586664 C58.0319985,10.1466664 50.0186654,3.82933324 36.3053324,3.82933324 C15.8093329,3.82933324 3.01999992,15.077333 3.01999992,40.9653323 C3.01999992,64.6959984 14.7306663,77.9479981 34.7639991,77.9479981 L34.7639991,77.9479981 Z" id="path66"></path>
                            </g>
                            <g id="g68" transform="translate(387.309190, 5.817733)" fill="#ea2939">
                                <path d="M6.6666665,0 C3.15333325,0 0.402666657,2.7506666 0.402666657,6.26399984 L0.402666657,68.8266649 C0.402666657,72.3386649 3.15333325,75.0906648 6.6666665,75.0906648 C10.1799997,75.0906648 12.9306663,72.3386649 12.9306663,68.8266649 L12.9306663,66.8653317 C17.2719996,72.4133315 24.5639994,75.7066648 33.0159992,75.7066648 C36.3853324,75.7066648 39.1253324,72.9653315 39.1253324,69.5959983 C39.1253324,66.226665 36.3853324,63.4866651 33.0159992,63.4866651 C20.4399995,63.4866651 12.9306663,54.9986653 12.9306663,40.7813323 L12.9306663,6.26399984 C12.9306663,2.7506666 10.1799997,0 6.6666665,0" id="path70"></path>
                            </g>
                            <g id="g72" transform="translate(385.658790, 4.190800)" fill="#ea2939">
                                <path d="M34.6666658,78.6666647 C27.126666,78.6666647 20.4533328,76.1506648 15.8013329,71.7946649 C15.185333,75.3933314 12.1186664,78.0506647 8.31733313,78.0506647 C4.0559999,78.0506647 0.719999982,74.7133315 0.719999982,70.4533316 L0.719999982,7.89066647 C0.719999982,3.63066658 4.0559999,0.293333326 8.31733313,0.293333326 C12.577333,0.293333326 15.9146663,3.63066658 15.9146663,7.89066647 L15.9146663,42.4079989 C15.9146663,55.9906653 22.7493328,63.7799984 34.6666658,63.7799984 C38.7706657,63.7799984 42.1093323,67.118665 42.1093323,71.2226649 C42.1093323,75.3279981 38.7706657,78.6666647 34.6666658,78.6666647 M34.6666658,75.9999981 C37.2853324,75.9999981 39.4426657,73.8426648 39.4426657,71.2226649 C39.4426657,68.6039983 37.2853324,66.446665 34.6666658,66.446665 C20.4893328,66.446665 13.2479997,56.5839986 13.2479997,42.4079989 L13.2479997,7.89066647 C13.2479997,5.11733321 11.0906664,2.95999993 8.31733313,2.95999993 C5.54399986,2.95999993 3.38666658,5.11733321 3.38666658,7.89066647 L3.38666658,70.4533316 C3.38666658,73.2266648 5.54399986,75.3839981 8.31733313,75.3839981 C11.0906664,75.3839981 13.2479997,73.2266648 13.2479997,70.4533316 L13.2479997,63.6719984 C16.3306663,70.7613316 24.0333327,75.9999981 34.6666658,75.9999981" id="path74"></path>
                            </g>
                            <g id="g76" transform="translate(435.259056, 6.393200)" fill="#ea2939">
                                <path d="M0,7.9999998 C0,13.0839997 2.7746666,15.3959996 7.24266649,15.3959996 C11.7106664,15.3959996 14.485333,13.0839997 14.485333,7.9999998 C14.485333,2.91466659 11.7106664,0.757333314 7.24266649,0.757333314 C2.7746666,0.757333314 0,2.91466659 0,7.9999998" id="path78"></path>
                            </g>
                            <g id="g80" transform="translate(460.227855, 2.645200)" fill="#ea2939">
                                <path d="M34.6666658,70.6666649 C20.3519995,70.6666649 12.453333,61.4519985 11.4666664,46.8079988 L55.7266653,46.8079988 C55.7266653,58.6559985 51.613332,70.6666649 34.6666658,70.6666649 M34.6666658,80.2093313 C60.9919985,80.2093313 66.0919983,59.3119985 66.0919983,48.1253321 C66.0919983,43.3533322 66.0919983,37.5946657 59.5106652,37.5946657 L11.4666664,37.5946657 C11.4666664,21.3053328 20.8453328,10.7759997 36.3106658,10.7759997 C45.8546655,10.7759997 51.449332,14.3959996 56.0559986,17.8506662 C57.0426652,18.5093329 57.6999986,18.8373329 59.0186652,18.8373329 C61.6493318,18.8373329 63.7893317,16.6986662 63.7893317,14.065333 C63.7893317,12.257333 62.9653318,11.2693331 61.9773318,10.2826664 C59.5106652,7.81466647 50.9546654,1.06799997 36.3106658,1.06799997 C14.429333,1.06799997 0.771999981,13.0799997 0.771999981,40.7213323 C0.771999981,66.058665 13.277333,80.2093313 34.6666658,80.2093313" id="path82"></path>
                            </g>
                            <g id="g84" transform="translate(535.334653, 2.645200)" fill="#ea2939">
                                <path d="M34.6666658,70.6666649 C20.3519995,70.6666649 12.4546664,61.4519985 11.4666664,46.8079988 L55.7266653,46.8079988 C55.7266653,58.6559985 51.6119987,70.6666649 34.6666658,70.6666649 M34.6666658,80.2093313 C60.9906651,80.2093313 66.090665,59.3119985 66.090665,48.1253321 C66.090665,43.3533322 66.090665,37.5946657 59.5119985,37.5946657 L11.4666664,37.5946657 C11.4666664,21.3053328 20.8466661,10.7759997 36.3106658,10.7759997 C45.8546655,10.7759997 51.4479987,14.3959996 56.0559986,17.8506662 C57.0439986,18.5093329 57.6999986,18.8373329 59.0173319,18.8373329 C61.6493318,18.8373329 63.7893317,16.6986662 63.7893317,14.065333 C63.7893317,12.257333 62.9666651,11.2693331 61.9773318,10.2826664 C59.5119985,7.81466647 50.9559987,1.06799997 36.3106658,1.06799997 C14.429333,1.06799997 0.771999981,13.0799997 0.771999981,40.7213323 C0.771999981,66.058665 13.2759997,80.2093313 34.6666658,80.2093313" id="path86"></path>
                            </g>
                            <g id="g88" transform="translate(650.554650, 0.128933)" stroke="#ea2939" stroke-width="14.6666663">
                                <path d="M81.3333313,47.9999988 C81.3333313,54.7999986 77.6133314,59.6893318 72.4213315,63.0693318 C72.4213315,63.0693318 28.3773326,91.7719977 26.550666,92.897331 C24.0013327,94.4666643 20.6479995,95.6586643 17.2013329,95.6586643 C7.70266647,95.6586643 0.0013333333,87.9586645 0.0013333333,78.4573314 L0.0013333333,17.5426662 C0.0013333333,8.04133313 7.70266647,0.341333325 17.2013329,0.341333325 C20.4719995,0.341333325 23.7586661,1.51999996 26.2693327,2.77199993 C28.7799993,4.02266657 72.4213315,32.9266658 72.4213315,32.9266658 C72.4213315,32.9266658 81.3333313,38.6333324 81.3333313,47.9999988 L81.3333313,47.9999988 Z" id="path90"></path>
                            </g>
                            <g id="g92" transform="translate(695.891849, 0.128933)" stroke="#ea2939" stroke-width="14.6666663">
                                <path d="M81.3333313,47.9999988 C81.3333313,54.7999986 77.6133314,59.6893318 72.4213315,63.0693318 C72.4213315,63.0693318 28.3773326,91.7719977 26.550666,92.897331 C24.0013327,94.4666643 20.6479995,95.6586643 17.2013329,95.6586643 C7.70266647,95.6586643 0.0013333333,87.9586645 0.0013333333,78.4573314 L0.0013333333,17.5426662 C0.0013333333,8.04133313 7.70266647,0.341333325 17.2013329,0.341333325 C20.4719995,0.341333325 23.7586661,1.51999996 26.2693327,2.77199993 C28.7799993,4.02266657 72.4213315,32.9266658 72.4213315,32.9266658 C72.4213315,32.9266658 81.3333313,38.6333324 81.3333313,47.9999988 L81.3333313,47.9999988 Z" id="path94"></path>
                            </g>
                        </g>
                    </g>
                </g>
            </g>
        </g>
    </g>
</svg>
