<svg width="335" height="233" viewBox="0 0 335 233" fill="none" xmlns="http://www.w3.org/2000/svg">
<g clip-path="url(#clip0_81_132)">
<path d="M70.0273 9.62531L71.4908 130.118L134.729 160.859L133.265 40.3668L70.0273 9.62531Z" fill="#F2F2F2"/>
<path d="M50.8104 0L3.55762 96.81L67.673 127.978L66.2096 7.48587L50.8104 0Z" fill="#F2F2F2"/>
<path d="M335 136.002L207.376 73.9609L208.839 194.453L287.747 232.812L335 136.002Z" fill="#F2F2F2"/>
<path d="M138.981 40.3668L140.445 160.859L203.683 191.6L202.22 71.1083L138.981 40.3668Z" fill="#F2F2F2"/>
<path d="M160.962 136.547L159.176 176.483C159.176 176.483 163.821 214.28 162.749 215.35C161.677 216.419 158.818 218.559 160.962 221.055C163.106 223.551 170.967 225.334 171.324 223.907C171.681 222.481 172.396 181.832 172.396 181.832L174.897 133.695L160.962 136.547Z" fill="#2F2E41"/>
<path opacity="0.2" d="M160.962 136.547L159.176 176.483C159.176 176.483 163.821 214.28 162.749 215.35C161.677 216.419 158.818 218.559 160.962 221.055C163.106 223.551 170.967 225.334 171.324 223.907C171.681 222.481 172.396 181.832 172.396 181.832L174.897 133.695L160.962 136.547Z" fill="black"/>
<path d="M162.749 220.342C162.749 220.342 153.816 227.117 152.744 227.117C151.672 227.117 142.025 230.326 148.814 231.752C155.603 233.178 172.038 232.465 172.396 230.326C172.753 228.186 171.324 221.694 171.324 221.694L162.749 220.342Z" fill="#2F2E41"/>
<path opacity="0.2" d="M162.749 220.342C162.749 220.342 153.816 227.117 152.744 227.117C151.672 227.117 142.025 230.326 148.814 231.752C155.603 233.178 172.038 232.465 172.396 230.326C172.753 228.186 171.324 221.694 171.324 221.694L162.749 220.342Z" fill="black"/>
<path d="M140.596 106.595C140.596 106.595 136.666 108.022 136.666 109.091C136.666 110.161 133.093 123.711 132.378 124.424C131.664 125.137 131.306 128.346 131.306 128.346C131.306 128.346 127.733 136.547 128.448 136.547C129.163 136.547 135.237 135.121 135.594 136.547C135.951 137.974 138.81 127.633 138.81 127.633L144.884 115.51L140.596 106.595Z" fill="#6C63FF"/>
<path d="M128.448 137.974C128.448 137.974 129.52 145.818 132.379 146.531C135.237 147.244 132.379 136.547 132.379 136.547L128.448 137.974Z" fill="#FFB8B8"/>
<path d="M137.738 102.316C137.738 102.316 139.882 106.952 140.954 109.448C142.026 111.944 152.03 103.03 152.03 103.03C152.03 103.03 146.671 99.1072 146.671 97.3244C146.671 95.5415 137.738 102.316 137.738 102.316Z" fill="#FFB8B8"/>
<path d="M34.6718 218.222C37.068 227.062 45.2754 232.536 45.2754 232.536C45.2754 232.536 49.5978 223.679 47.2016 214.839C44.8055 206 36.5981 200.525 36.5981 200.525C36.5981 200.525 32.2757 209.382 34.6718 218.222Z" fill="#3F3D56"/>
<path d="M38.193 216.322C44.7681 222.71 45.5712 232.529 45.5712 232.529C45.5712 232.529 35.714 231.992 29.1389 225.604C22.5638 219.217 21.7607 209.398 21.7607 209.398C21.7607 209.398 31.6179 209.935 38.193 216.322Z" fill="#6C63FF"/>
<path d="M119.873 232.822C113.443 232.822 107.156 230.919 101.81 227.353C96.4627 223.788 92.2953 218.72 89.8344 212.791C87.3735 206.862 86.7296 200.338 87.9841 194.043C89.2387 187.749 92.3353 181.967 96.8825 177.429C101.43 172.891 107.223 169.801 113.53 168.549C119.837 167.297 126.375 167.94 132.316 170.396C138.257 172.851 143.335 177.01 146.908 182.346C150.48 187.683 152.387 193.956 152.387 200.374C152.378 208.976 148.949 217.224 142.853 223.307C136.758 229.39 128.494 232.812 119.873 232.822ZM119.873 168.639C113.584 168.639 107.436 170.5 102.207 173.987C96.9772 177.474 92.9014 182.43 90.4946 188.229C88.0877 194.028 87.458 200.409 88.685 206.565C89.912 212.721 92.9406 218.375 97.3878 222.814C101.835 227.252 107.501 230.274 113.67 231.499C119.838 232.723 126.232 232.095 132.042 229.693C137.853 227.291 142.819 223.223 146.314 218.005C149.808 212.786 151.673 206.65 151.673 200.374C151.663 191.96 148.31 183.894 142.348 177.944C136.387 171.995 128.304 168.648 119.873 168.639Z" fill="#2F2E41"/>
<path d="M219.916 232.822C213.486 232.822 207.199 230.919 201.853 227.353C196.506 223.788 192.338 218.72 189.877 212.791C187.416 206.862 186.773 200.338 188.027 194.043C189.282 187.749 192.378 181.967 196.925 177.429C201.473 172.891 207.266 169.801 213.573 168.549C219.88 167.297 226.418 167.94 232.359 170.396C238.3 172.851 243.378 177.01 246.951 182.346C250.523 187.683 252.43 193.956 252.43 200.374C252.421 208.976 248.992 217.224 242.896 223.307C236.801 229.39 228.537 232.812 219.916 232.822ZM219.916 168.639C213.627 168.639 207.479 170.5 202.25 173.987C197.02 177.474 192.944 182.43 190.538 188.229C188.131 194.028 187.501 200.409 188.728 206.565C189.955 212.721 192.984 218.375 197.431 222.814C201.878 227.252 207.544 230.274 213.713 231.499C219.881 232.723 226.275 232.095 232.085 229.693C237.896 227.291 242.862 223.223 246.357 218.005C249.851 212.786 251.716 206.65 251.716 200.374C251.706 191.96 248.353 183.894 242.391 177.944C236.43 171.995 228.347 168.648 219.916 168.639Z" fill="#2F2E41"/>
<path d="M119.873 202.513C121.057 202.513 122.017 201.555 122.017 200.374C122.017 199.192 121.057 198.234 119.873 198.234C118.689 198.234 117.729 199.192 117.729 200.374C117.729 201.555 118.689 202.513 119.873 202.513Z" fill="#2F2E41"/>
<path d="M220.631 202.513C221.815 202.513 222.775 201.555 222.775 200.374C222.775 199.192 221.815 198.234 220.631 198.234C219.447 198.234 218.487 199.192 218.487 200.374C218.487 201.555 219.447 202.513 220.631 202.513Z" fill="#2F2E41"/>
<path d="M123.06 197.304L122.402 197.025L141.076 153.301L194.031 154.38L194.134 154.54L220.217 195.189L219.615 195.574L193.635 155.085L141.545 154.024L123.06 197.304Z" fill="#2F2E41"/>
<path d="M178.693 205.431L192.418 157.131L193.106 157.326L179.676 204.587L215.584 200.02L215.674 200.728L178.693 205.431Z" fill="#2F2E41"/>
<path d="M139.78 164.11L139.27 164.61L176.071 202.05L176.581 201.55L139.78 164.11Z" fill="#2F2E41"/>
<path d="M195.988 145.724L193.848 153.57L194.537 153.757L196.678 145.911L195.988 145.724Z" fill="#2F2E41"/>
<path d="M142.374 151.246L141.677 151.088L143.364 143.679H137.381V139.043H138.095V142.966H144.26L142.374 151.246Z" fill="#2F2E41"/>
<path d="M183.114 138.687C183.114 138.687 183.114 136.547 187.759 137.617C192.404 138.687 206.696 141.539 207.768 141.183C208.84 140.826 208.482 143.322 203.837 144.392C199.193 145.462 193.833 142.966 192.761 142.252C191.689 141.539 183.114 138.687 183.114 138.687Z" fill="#2F2E41"/>
<path d="M170.252 202.513H160.962V206.079H170.252V202.513Z" fill="#6C63FF"/>
<path d="M179.184 212.14C177.771 212.14 176.389 211.722 175.214 210.939C174.039 210.155 173.123 209.041 172.582 207.738C172.041 206.435 171.9 205.001 172.175 203.618C172.451 202.234 173.132 200.964 174.131 199.966C175.13 198.969 176.404 198.29 177.79 198.015C179.176 197.74 180.613 197.881 181.919 198.42C183.224 198.96 184.34 199.874 185.126 201.047C185.911 202.22 186.33 203.599 186.33 205.009C186.328 206.9 185.574 208.712 184.235 210.049C182.895 211.386 181.079 212.138 179.184 212.14ZM179.184 198.591C177.912 198.591 176.669 198.967 175.611 199.672C174.553 200.378 173.729 201.38 173.242 202.553C172.755 203.726 172.628 205.016 172.876 206.261C173.124 207.506 173.737 208.65 174.636 209.547C175.536 210.445 176.682 211.056 177.929 211.304C179.177 211.552 180.47 211.425 181.645 210.939C182.82 210.453 183.825 209.63 184.531 208.575C185.238 207.519 185.615 206.278 185.615 205.009C185.613 203.307 184.935 201.676 183.729 200.473C182.524 199.27 180.889 198.593 179.184 198.591Z" fill="#2F2E41"/>
<path d="M140.953 105.882C145.689 105.882 149.528 102.051 149.528 97.3244C149.528 92.5981 145.689 88.7666 140.953 88.7666C136.217 88.7666 132.378 92.5981 132.378 97.3244C132.378 102.051 136.217 105.882 140.953 105.882Z" fill="#FFB8B8"/>
<path d="M168.108 137.26C168.108 137.26 143.454 151.523 143.811 156.159C144.169 160.794 162.748 186.111 162.748 186.111C162.748 186.111 164.177 193.599 165.607 193.599C167.036 193.599 175.968 196.808 176.325 194.668C176.683 192.529 173.467 190.033 173.824 188.607C174.182 187.18 158.103 161.151 158.103 161.151C158.103 161.151 192.514 148.314 185.313 137.26C178.112 126.207 168.108 137.26 168.108 137.26Z" fill="#2F2E41"/>
<path d="M168.823 192.172C168.823 192.172 164.535 193.242 163.821 194.668C163.106 196.095 150.601 200.73 154.174 201.8C157.747 202.87 178.47 203.226 179.185 202.513C179.899 201.8 179.185 193.523 176.326 193.561C173.468 193.599 170.252 194.668 168.823 192.172Z" fill="#2F2E41"/>
<path d="M140.954 110.518L148.993 100.712C148.993 100.712 158.104 98.0375 162.034 103.386C165.965 108.735 176.684 121.928 180.257 124.78C183.83 127.633 188.832 138.687 187.045 139.043C185.259 139.4 175.254 135.121 171.324 137.974C167.394 140.826 159.891 141.183 159.533 139.756C159.176 138.33 137.738 114.44 137.738 111.231C137.738 108.022 140.023 107.333 140.023 107.333L140.954 110.518Z" fill="#6C63FF"/>
<path d="M145.272 138.867L134.492 135.063C133.934 134.866 133.321 135.158 133.124 135.715C132.927 136.272 133.219 136.884 133.777 137.08L144.557 140.884C145.115 141.081 145.728 140.789 145.925 140.232C146.122 139.675 145.83 139.064 145.272 138.867Z" fill="#2F2E41"/>
<path d="M120.945 134.408C120.945 134.408 108.44 137.974 109.511 141.896C110.583 145.818 122.017 137.26 122.017 137.26L120.945 134.408Z" fill="#FFB8B8"/>
<path d="M153.459 103.386C153.459 103.386 148.456 107.665 147.384 112.657C146.313 117.649 140.953 126.563 140.953 126.563L119.158 133.695C119.158 133.695 117.729 140.47 119.873 140.47C122.016 140.47 145.955 135.478 146.67 134.408C147.384 133.338 162.748 113.014 162.748 113.014C162.748 113.014 164.177 101.96 153.459 103.386Z" fill="#6C63FF"/>
<path d="M135.627 87.4193C135.416 87.601 135.163 87.7277 134.891 87.7882C134.754 87.8125 134.613 87.7819 134.499 87.703C134.385 87.6241 134.307 87.5034 134.282 87.3672C134.124 87.8033 133.831 88.178 133.446 88.4367C133.037 88.6496 132.404 88.4711 132.345 88.0144C132.285 88.3612 132.132 88.685 131.901 88.9507C131.78 89.0779 131.614 89.1525 131.439 89.1583C131.264 89.1641 131.094 89.1008 130.965 88.982C131.144 89.9592 131.033 90.9641 131.09 91.9559C131.146 92.9478 131.411 93.9993 132.162 94.6515C133.257 95.6026 134.904 95.3679 136.344 95.1877C136.562 95.142 136.788 95.1544 136.999 95.2234C137.539 95.4528 137.514 96.2021 137.522 96.7871C137.566 97.8136 137.973 98.7913 138.671 99.5466C139.369 100.302 140.312 100.786 141.334 100.913C141.905 101.001 142.489 100.859 142.956 100.518C143.365 100.172 143.574 99.608 144.042 99.3481C144.805 98.9254 145.729 99.5419 146.286 100.211C146.844 100.881 147.393 101.704 148.257 101.827C149.398 101.989 150.268 100.827 150.695 99.7579C151.284 98.2591 151.566 96.6578 151.524 95.0484C151.483 93.439 151.12 91.8542 150.455 90.3873C148.07 85.2002 139.925 84.3798 135.627 87.4193Z" fill="#2F2E41"/>
<path d="M286.512 232.807L285.877 232.48C294.124 216.568 289.714 195.904 284.562 181.372C281.064 171.603 276.603 162.206 271.243 153.318L271.847 152.937C277.235 161.87 281.719 171.315 285.236 181.133C290.435 195.799 294.876 216.669 286.512 232.807Z" fill="#2F2E41"/>
<path d="M292.628 153.065L287.992 178.383L288.695 178.511L293.331 153.193L292.628 153.065Z" fill="#2F2E41"/>
<path d="M261.803 174.636L261.279 175.122L285.218 200.795L285.741 200.309L261.803 174.636Z" fill="#2F2E41"/>
<path d="M304.839 202.837L292.696 219.6L293.275 220.018L305.418 203.255L304.839 202.837Z" fill="#2F2E41"/>
<path d="M294.769 146.353C296.743 146.353 298.342 144.757 298.342 142.787C298.342 140.818 296.743 139.222 294.769 139.222C292.796 139.222 291.196 140.818 291.196 142.787C291.196 144.757 292.796 146.353 294.769 146.353Z" fill="#6C63FF"/>
<path d="M255.824 173.809C257.797 173.809 259.397 172.213 259.397 170.243C259.397 168.274 257.797 166.678 255.824 166.678C253.851 166.678 252.251 168.274 252.251 170.243C252.251 172.213 253.851 173.809 255.824 173.809Z" fill="#3F3D56"/>
<path d="M271.546 177.375C273.519 177.375 275.119 175.778 275.119 173.809C275.119 171.84 273.519 170.243 271.546 170.243C269.572 170.243 267.973 171.84 267.973 173.809C267.973 175.778 269.572 177.375 271.546 177.375Z" fill="#3F3D56"/>
<path d="M264.399 191.281C266.372 191.281 267.972 189.685 267.972 187.715C267.972 185.746 266.372 184.15 264.399 184.15C262.426 184.15 260.826 185.746 260.826 187.715C260.826 189.685 262.426 191.281 264.399 191.281Z" fill="#6C63FF"/>
<path d="M309.061 200.195C311.035 200.195 312.634 198.599 312.634 196.63C312.634 194.66 311.035 193.064 309.061 193.064C307.088 193.064 305.488 194.66 305.488 196.63C305.488 198.599 307.088 200.195 309.061 200.195Z" fill="#3F3D56"/>
<path d="M297.271 204.118C299.244 204.118 300.844 202.521 300.844 200.552C300.844 198.583 299.244 196.986 297.271 196.986C295.298 196.986 293.698 198.583 293.698 200.552C293.698 202.521 295.298 204.118 297.271 204.118Z" fill="#3F3D56"/>
<path d="M305.489 215.528C307.462 215.528 309.062 213.932 309.062 211.962C309.062 209.993 307.462 208.397 305.489 208.397C303.516 208.397 301.916 209.993 301.916 211.962C301.916 213.932 303.516 215.528 305.489 215.528Z" fill="#3F3D56"/>
<path d="M267.972 150.632C269.946 150.632 271.545 149.035 271.545 147.066C271.545 145.097 269.946 143.5 267.972 143.5C265.999 143.5 264.399 145.097 264.399 147.066C264.399 149.035 265.999 150.632 267.972 150.632Z" fill="#3F3D56"/>
<path d="M322.639 232.287H0V233H322.639V232.287Z" fill="#2F2E41"/>
<path d="M55.3581 158.45L25.0342 140.978L7.52665 171.241L37.8506 188.713L55.3581 158.45Z" fill="#F2F2F2"/>
<path d="M38.5881 194.798C37.0334 194.798 35.5137 194.338 34.221 193.476C32.9283 192.614 31.9208 191.389 31.3259 189.955C30.7309 188.522 30.5753 186.944 30.8786 185.423C31.1819 183.901 31.9305 182.503 33.0298 181.406C34.1291 180.309 35.5298 179.562 37.0546 179.259C38.5793 178.957 40.1598 179.112 41.5962 179.706C43.0325 180.299 44.2601 181.305 45.1239 182.595C45.9876 183.885 46.4486 185.402 46.4486 186.953C46.4462 189.033 45.6173 191.027 44.1437 192.497C42.6701 193.968 40.6721 194.795 38.5881 194.798ZM38.5881 179.822C37.1747 179.822 35.7931 180.24 34.618 181.024C33.4429 181.807 32.5269 182.921 31.9861 184.224C31.4452 185.527 31.3037 186.961 31.5794 188.344C31.8552 189.728 32.5358 190.998 33.5351 191.996C34.5345 192.993 35.8078 193.672 37.194 193.948C38.5801 194.223 40.0169 194.081 41.3227 193.542C42.6284 193.002 43.7445 192.088 44.5297 190.915C45.3149 189.742 45.734 188.364 45.734 186.953C45.7319 185.062 44.9783 183.25 43.6387 181.913C42.299 180.576 40.4826 179.824 38.5881 179.822Z" fill="#3F3D56"/>
</g>
<defs>
<clipPath id="clip0_81_132">
<rect width="335" height="233" fill="white"/>
</clipPath>
</defs>
</svg>
