<svg id="Layer_1" data-name="Layer 1" xmlns="http://www.w3.org/2000/svg" viewBox="0 0 350 150"><defs><clipPath id="clip-path"><path fill="none" d="M349.11 150H4.9L5.11 0h344.2l-.2 150z"/></clipPath><style>.cls-2{fill:#effbfd}.cls-3{fill:#d4f4fc}.cls-5{fill:#fff}.cls-6{fill:#ef832b}.cls-9{fill:#916330}.cls-11{fill:#2768be}.cls-12{fill:#81d1e0}.cls-18{fill:#edcb9d}.cls-19{fill:#bf5f1f}.cls-20{fill:#c6d92f}</style></defs><path class="cls-2" d="M178.46 136.62h7.23V76.89H155.9v59.73h22.56z"/><path class="cls-3" d="M220.21 136.62h7.24v-31.74a7.24 7.24 0 00-7.24-7.23h-15.33a7.23 7.23 0 00-7.23 7.23v31.74h22.56z"/><path class="cls-2" d="M138.3 136.62h7.24v-31.47a7.24 7.24 0 00-7.24-7.23H96.42v38.7h41.88zm-59.47 0h7.23v-29.87H36.95v29.87h41.88zm-59.48 0h7.23V62.8H.35v73.82h19z"/><path class="cls-2" d="M.52 134.89h235.25v14.17H.52z"/><g clip-path="url(#clip-path)"><path class="cls-3" d="M195.56-4.05h149.18v340.23H195.56z"/><path class="cls-5" d="M240.96 272.22l107.86 45.83V-22.03l-107.86-5.71v299.96z"/><path class="cls-3" d="M339.74 307.99l-90.93-43.67V-17.42l90.93 6.52v318.89z"/><path class="cls-5" d="M250.17 262.3l88.28 43.67V-9.26l-88.28-6.52V262.3z"/><path class="cls-3" d="M330.36 93.7l-71.75-15.4V.61l71.75 5.72V93.7z"/><path class="cls-5" d="M260.08 76.42l68.81 15.41V8.2l-68.81-5.71v73.93z"/><path class="cls-3" d="M330.36 194.46l-71.75-30.75V88.45l71.75 18.63v87.38z"/><path class="cls-5" d="M260.08 161.83l68.81 30.76v-83.63l-68.81-18.64v71.51z"/><path class="cls-6" d="M143.5 78.84c-.68-1.24-2.51-.76-3.06-1.67-.41-.68.07-2.45-.18-3.28-1-3.2-3.73-1.17-6.12-1.2-1.37 0-1.33-.25-2-.1-2.47.58-4.34 4.59-3.26 6.3.62 1 1.88.62 3.53 2.14a7.16 7.16 0 011.39 1.77c.77 0 9.37.22 10-2.26a2.59 2.59 0 00-.3-1.7z"/><path d="M131.26 66.71c-.29-1.27-1.24-2.19-1-3.56.23-1.61 1.28-1.95.72-3.9-1.39-4.84-5.15-.62-8.42-1.08-2.26-.32-3.13-1.27-4.86.65a5.56 5.56 0 00-1.11 1.88 6.55 6.55 0 00-.37 2.72 7.14 7.14 0 001.2 4.55c1.87 2.62 5.75 3.68 9.63 2.47.07.04 5.28.97 4.21-3.73z" fill="#f16ea7"/><path d="M137.84 73.2c-.27-1.46-1.13-1.41-1.88-2.4s-.61-2.09-1.12-3.07c-2.05-4-9.3-3.65-10.77.85a14.64 14.64 0 001.82 5.19 12.1 12.1 0 007.19 5.62c2.78-1.3 4.45-3.13 4.72-4.29a4.65 4.65 0 00.04-1.9z" fill="#fdb716"/><path class="cls-9" d="M111.77 49.85a12.88 12.88 0 00-3.33-7c-4-3.92-9.63-3.35-10.81-3.23-.6.06-7.72.89-11.53 7.17-3.4 5.59-3.3 14.08 2.49 19.2a15 15 0 0020-.43c5.35-5.34 3.64-13.56 3.18-15.71z"/><path d="M116.05 35.23c-4.63 2.48-4.33 6.74-8.78 10a14.62 14.62 0 01-7.2 2.62l-20 3.51a14.9 14.9 0 002 11.39c4.19 6.28 11.64 6.39 12.25 6.39a12.74 12.74 0 01-7.15-5.91c-.57-1.06-2.56-4.78-1.24-7.68 1.84-4 8.52-3 24.17-6.53 8.89-2 12-3.48 13.36-6.36 1.24-2.62 1.19-6.66-.91-8.13-2.26-1.53-6 .47-6.5.7z" fill="#72483b"/><path class="cls-11" d="M111.75 39.75c-.07-4.2-8.16-6.88-8.55-7-8.35-2.68-17.9 1.89-22.12 9.25a20.25 20.25 0 00-2.18 13.27c27.5-6.83 32.92-12.04 32.85-15.52z"/><path class="cls-9" d="M98 68.69a2.75 2.75 0 00-.19-1.21 1.91 1.91 0 00-1.64-.93 5.57 5.57 0 00-1.93.38l-.19.52-.24 6.71 4.26.08z"/><path class="cls-12" d="M102.85 80.4c-.48-2.14-1.1-4.38-2.68-5.89a6.14 6.14 0 00-7.9-.3 17 17 0 00-2.08 3 19.2 19.2 0 00-1.86 5.34 82.28 82.28 0 00-2 19.48 1.91 1.91 0 00.37 1.33 1.94 1.94 0 001.32.39l12 .46a5.2 5.2 0 003.55-.72c1.16-.93 1.29-2.61 1.3-4.09a86.89 86.89 0 00-2.02-19z"/><path class="cls-9" d="M135.71 89.77l2.6-4.74a2 2 0 01.4-.55 1.26 1.26 0 011.36-.11 2.72 2.72 0 011 1 5.12 5.12 0 01.4 5 3.84 3.84 0 01-4.33 2"/><path d="M116.17 63c0 9.21-.19 18.39-.19 27.62v22.26c0 4.79 0 10.22 2 14.71.74 1.75 2 3.77 3.92 3.94 2.51.23 4.71-2.18 5.9-4.12 3-4.87 3.76-11.24 4.47-16.73A128.51 128.51 0 01136 91.74c.66-2.33 1.67-4.6 2.2-6.95s.19-2.59-1.46-4.08-3-3.44-4.61-5-3.55-3.14-5.3-4.76a53.33 53.33 0 00-10.62-7.75" fill="#e6a3c6"/><path class="cls-11" d="M96.31 64.66a14.16 14.16 0 01-2.75-3.82 28.36 28.36 0 01-1.76-5.32c-.31-1.27-.25-2.67-.63-3.91l-5.25.72c-.23 2.74 1.36 6.21 2.42 8.74a13.27 13.27 0 003.06 4.39A12.57 12.57 0 0095.05 68a13.23 13.23 0 009 .49 14.46 14.46 0 01-7.74-3.83z"/><path class="cls-9" d="M86.17 56.91c-1.76-.44-3.34-.87-4.81.38a4.4 4.4 0 00-1.15 5c1.39 3 7.46 3.59 8.1-.3z"/><path d="M86.25 103.24l.3.3A79.34 79.34 0 0081 116.26s-2.41 6.37-4.23 13.28c-10.59 40-14.43 111.08-14.43 111.08-.45 8.35-2.56 30.54-3.05 45.16l6.06.52c6.31-19.61 13.77-51.38 18.75-74.88a651.88 651.88 0 0013.54-107.88z" fill="#0995cc"/><path d="M103.25 112.63c-.47-3-.94-6.07-1.4-9.11h-10a69.62 69.62 0 00-1.92 13.73c-1.08 27.39 15.11 36.23 19.82 62.57 2.16 12.11-1.31 10.28-3.8 50.41-1.1 17.71-4.27 46.13-4.3 55.71l6.13.35c4.1-10.24 12.47-38.93 17.52-57.21 7.86-28.46 10.5-35.79 9.26-45.56-.62-4.93-1.84-9.58-11.5-30.52-5.78-12.51-12.36-26-19.81-40.37z" fill="#11a3eb"/><path d="M94.9 75.79l8.69 27.72h-2.72s-12.94-18.45-6-27.45" fill="#74c6d1"/><path class="cls-12" d="M136.21 89.1l-19 16.14C114.94 99.57 104.32 74 98.42 74a5.23 5.23 0 00-3.08.94c-.66.54-2.16 2.12-1.64 7.14.77 7.45 5 14.36 8.83 19.88 9.73 14.17 10.81 16.9 13.71 16.8 2.28-.09 3.87-1.87 9.78-10.12 4.61-6.45 8.43-12 11.35-16.42-.37-1.06-.77-2.09-1.16-3.12z"/><path d="M211.36 50.08c-.08 10-.15 20.07 2.12 29.78s7.12 19.14 15.17 25.06a17.09 17.09 0 008 3.48 8.9 8.9 0 007.9-2.92c1.55-1.94 2-4.52 2.27-7 1-8.11 1.48-16.4-.16-24.41s-5.59-15.77-12.1-20.71-15.78-6.59-23.09-2.94" fill="#a55316"/><path class="cls-18" d="M226.93 75.39c-.07-.89-.44-.93-1.23-3.34s-.93-3.45-1.47-3.51c-.27 0-.71.2-1.37 1.61-9.31 16.22-15.67 27.56-16.9 30.57a6.31 6.31 0 01-2.38 3 7.55 7.55 0 01-3.8.8l-23.78.88c-4 .14-8.59.52-11.16 3.64-.84 1-1.34 2.63-.41 3.56a2.42 2.42 0 002.65.23 17.05 17.05 0 002.33-1.58c3.13-2.08 7.23-1.65 11-1.22q9.54 1.08 19.15 1.38c2.1.07 4.31.08 6.15-.91a12.45 12.45 0 004-4.31L218.57 93a97.93 97.93 0 006.56-10.77 13.57 13.57 0 001.8-6.84z"/><path class="cls-19" d="M246 35.06a20.41 20.41 0 00-11.62 4c-6.72 5.19-9.45 14.85-7 24.58l.71-3.64a91 91 0 003.65 35c1.42 4.61 2.1 10.27 5.74 11.45 3.79 1.23 8.25-2.9 9.59-4.14 12.72-11.79 13.77-37.84 4.75-57.39a60.09 60.09 0 00-5.82-9.86z"/><path class="cls-18" d="M228.86 61.91h-4.29v.42l.64 6.75 4.14-.24z"/><path class="cls-18" d="M235.47 42.59c-.29-.55-4-6.89-11.49-7.86a12.89 12.89 0 00-8.1 1.28c-6 3.41-8.09 12.48-5.34 19.26.18.45 3.18 7.52 10.48 9.29a12.49 12.49 0 0015.18-7.91 17.35 17.35 0 00-.73-14.06z"/><path class="cls-18" d="M234 57.06c2.08 1 4.44 1.93 6.66 1.27a5.39 5.39 0 003.72-4.65 5.75 5.75 0 00-2.83-5.29 6.18 6.18 0 00-6 0 6.7 6.7 0 00-3.26 5.15 4.37 4.37 0 00.41 2.47 2.56 2.56 0 002 1.37"/><path class="cls-19" d="M255.75 62c-1.18-17.35-9.45-31.14-20.94-34.53a22 22 0 00-15.27 1c-9 4.33-13.41 15.3-11.81 16.86.74.72 3-.5 4.72-1.41a15.3 15.3 0 006.55-7.23c4.47 10.88 9.05 13.76 12.51 14.27 6.92 1 11.9-5.69 17.32-3.62 2.95 1.12 5.77 4.78 6.92 14.66z"/><path class="cls-6" d="M232.25 69.14a2.68 2.68 0 00-.43-.53c-.4-.38-1.24-.92-4.51-.65a28 28 0 00-3 .43c-1.82 5.55-3.15 9.77-3.79 11.78a4.34 4.34 0 000 2.28 2 2 0 001.54 1.55c.57.07 1.17-.21 1.72 0 .87.26 1.07 1.37 1.11 2.28.15 3.12.31 6.25.46 9.37l11.11-1.51c.08-1.86.14-4.5 0-7.68a54.09 54.09 0 00-.79-8.41 29.16 29.16 0 00-3.42-8.91z"/><path class="cls-20" d="M243.38 133.63a211.24 211.24 0 00-11.33-38.95l-6.7.89a320.24 320.24 0 00-3.69 82.93c.77 8.92 1.89 17.42 3.26 25.47A43.31 43.31 0 00241 189.83c9.9-14.83 6.79-32.78 2.38-56.2z"/><path d="M224.92 204l-2.25-15.55c-.2-10.63-.16-21.68.21-33.13a645.03 645.03 0 014.73-60.11q11.65 43.45 23.29 86.92a105.07 105.07 0 01-17.9 16.5c-2.74 2.01-5.46 3.78-8.08 5.37z" fill="#b7c92f"/><path class="cls-20" d="M227.61 95.18c-1.5 17.06-3.11 43.8-1.17 70.41a55.49 55.49 0 006.75 23.86 42.62 42.62 0 0022.59 18.81 52.36 52.36 0 0029.58 1.47 815.93 815.93 0 01-48.9-115.67"/><path class="cls-18" d="M230.91 69.24c-1.42.7-1.88 2.77-1.91 3.89-.1 3 2.56 5.27 3.81 6.37a196.28 196.28 0 0114.48 14.61c-5.23 13.07-9.69 21.48-13.32 27.23-1.43 2.25-3.74 7.2-3.11 11.9.24 1.72 1.54 3.74 3.21 3.27s1.73-2.58 1.79-4.22c.17-4.81 2.91-8.63 7.07-16.42 3-5.58 3.67-4.67 8.24-12.69 3.38-5.93 4.15-8.43 3.7-11-.48-2.76-2.12-4.43-5.11-7.39-14.63-14.5-17.01-16.45-18.85-15.55z"/></g></svg>