<svg id="Layer_1" data-name="Layer 1" xmlns="http://www.w3.org/2000/svg" viewBox="0 0 350 150"><defs><clipPath id="clip-path"><path class="cls-1" d="M-.11-.38h350.1v53.91H-.11z"/></clipPath><clipPath id="clip-path-2"><path class="cls-1" d="M12.54-1.56h252.94v151.95H12.54z"/></clipPath><style>.cls-1{fill:none}.cls-2{fill:#d4f4fc}.cls-6{fill:#1190d7}.cls-7{fill:#11a3eb}.cls-9{fill:#fff}.cls-12{fill:#fdb716}.cls-13{fill:#f2cdc0}.cls-15{fill:#ef832b}.cls-16{fill:#e05220}.cls-17{fill:#c1d046}</style></defs><path class="cls-2" d="M0 139.43h349.83v4.78H0zm-.07-45.92h349.96v4.78H-.07zm-.08-45.92h350.09v4.78H-.15zM-.22 1.67H350v4.78H-.22zm328.57 119.68c0 3.29-1.94 6.27-5.08 8.42a23.33 23.33 0 01-24.55 0c-3.14-2.15-5.09-5.13-5.09-8.42s1.95-6.27 5.09-8.43a23.39 23.39 0 0124.55 0c3.14 2.16 5.08 5.14 5.08 8.43z"/><path class="cls-2" d="M296 114.18c1.31-.9 5.43-1.62 7.17-2.1a43.13 43.13 0 017.75-.69c3.83 0 12.4 1.06 14.92 2.79s4.06 5.78 4.06 8.41-1.55 6.7-4.06 8.42-11.05 2.79-14.84 2.79a43.13 43.13 0 01-7.75-.69c-1.74-.48-5.86-1.2-7.17-2.1-2.51-1.72-4.06-5.78-4.06-8.42s1.51-6.69 3.98-8.41z"/><path class="cls-2" d="M293.37 115.43c1-.68 7.25-1.21 8.56-1.58a79.9 79.9 0 019-.52c2.87 0 15.67.8 17.55 2.1s3.06 6.44 3.06 8.41-1.17 7.12-3.06 8.41-14.68 2.09-17.55 2.09a79.93 79.93 0 01-9-.51c-1.31-.37-7.58-.91-8.56-1.58-1.88-1.29-3.05-6.44-3.05-8.41s1.17-7.12 3.05-8.41z"/><path class="cls-2" d="M290.7 116.68c.65-.45 9.08-.81 9.95-1.05s9.33-.35 10.25-.35c1.91 0 18.94.54 20.19 1.4s2 7.09 2 8.4-.78 7.55-2 8.41-18.28 1.39-20.19 1.39c-.92 0-9.45-.12-10.25-.34s-9.3-.6-9.95-1c-1.26-.86-2-7.09-2-8.41s.74-7.59 2-8.45z"/><path class="cls-2" d="M288 117.93c.33-.22 10.92-.4 11.35-.52s11-.18 11.49-.18c1 0 22.22.27 22.84.7s1 7.74 1 8.4-.39 8-1 8.4-21.88.7-22.84.7c-.46 0-11.09-.06-11.49-.18s-11-.3-11.35-.52c-.62-.43-1-7.74-1-8.4s.4-7.97 1-8.4zm-127.19 7.56c0 3.29-1.94 6.27-5.08 8.42a23.33 23.33 0 01-24.55 0c-3.14-2.15-5.08-5.13-5.08-8.42s1.94-6.27 5.08-8.42a23.33 23.33 0 0124.55 0c3.14 2.15 5.08 5.13 5.08 8.42z"/><path class="cls-2" d="M128.51 118.32c1.3-.9 5.42-1.62 7.16-2.1a43.13 43.13 0 017.75-.69c3.84 0 12.4 1.06 14.92 2.79s4.07 5.78 4.07 8.41-1.56 6.7-4.07 8.42-11.08 2.79-14.92 2.79a43.13 43.13 0 01-7.75-.69c-1.74-.48-5.86-1.2-7.16-2.1-2.52-1.72-4.07-5.78-4.07-8.42s1.56-6.73 4.07-8.41z"/><path class="cls-2" d="M125.83 119.57c1-.67 7.26-1.21 8.56-1.58a79.93 79.93 0 019-.51c2.88 0 15.67.8 17.56 2.09S164 126 164 128s-1.17 7.12-3.05 8.41-14.68 2.09-17.56 2.09a79.93 79.93 0 01-9-.51c-1.3-.37-7.58-.91-8.56-1.58-1.88-1.29-3-6.44-3-8.41s1.17-7.14 3-8.43z"/><path class="cls-2" d="M123.16 120.82c.65-.45 9.08-.81 10-1s9.33-.35 10.25-.35c1.92 0 18.94.54 20.2 1.4s2 7.09 2 8.41-.78 7.54-2 8.4-18.28 1.4-20.2 1.4c-.92 0-9.44-.13-10.25-.35s-9.3-.6-10-1.05c-1.26-.86-2-7.09-2-8.4s.74-7.6 2-8.46z"/><path class="cls-2" d="M120.49 122.07c.32-.22 10.91-.4 11.34-.52s11-.18 11.5-.18c1 0 22.21.27 22.84.7s1 7.74 1 8.4-.39 8-1 8.4-21.88.7-22.84.7c-.46 0-11.09-.06-11.5-.18s-11-.3-11.34-.52c-.63-.43-1-7.74-1-8.4s.37-7.97 1-8.4zm152.12.55c0 3.29-1.94 6.27-5.08 8.43a23.39 23.39 0 01-24.55 0c-3.14-2.16-5.09-5.14-5.09-8.43s2-6.27 5.09-8.42a23.33 23.33 0 0124.55 0c3.14 2.15 5.08 5.13 5.08 8.42z"/><path class="cls-2" d="M240.3 115.45c1.31-.9 5.43-1.62 7.17-2.1a43.13 43.13 0 017.75-.69c3.83 0 12.4 1.07 14.92 2.79s4.06 5.79 4.06 8.42-1.55 6.69-4.06 8.41-11.09 2.8-14.92 2.8a44.07 44.07 0 01-7.75-.69c-1.74-.49-5.86-1.21-7.17-2.11-2.51-1.72-4.06-5.78-4.06-8.41s1.55-6.7 4.06-8.42z"/><path class="cls-2" d="M237.63 116.7c1-.67 7.25-1.21 8.56-1.57a77.62 77.62 0 019-.52c2.87 0 15.67.8 17.56 2.09s3.05 6.44 3.05 8.41-1.17 7.12-3.05 8.41-14.69 2.1-17.56 2.1a79.9 79.9 0 01-9-.52c-1.31-.36-7.58-.9-8.56-1.58-1.88-1.29-3-6.43-3-8.41s1.12-7.11 3-8.41z"/><path class="cls-2" d="M235 118c.65-.45 9.08-.81 9.95-1s9.33-.34 10.25-.34c1.91 0 18.94.53 20.19 1.39s2 7.09 2 8.41-.78 7.54-2 8.4-18.28 1.4-20.19 1.4c-.92 0-9.45-.12-10.25-.35s-9.3-.6-9.95-1.05c-1.26-.86-2-7.09-2-8.4s.7-7.64 2-8.46z"/><path class="cls-2" d="M232.28 119.2c.33-.22 10.92-.4 11.35-.52s11-.17 11.49-.17c1 0 22.22.26 22.84.69s1 7.75 1 8.4-.39 8-1 8.4-21.88.7-22.84.7c-.46 0-11.09-.06-11.49-.17s-11-.3-11.35-.53c-.62-.43-1-7.74-1-8.4s.38-7.96 1-8.4zm-15.73 5.33c0 3.29-1.94 6.27-5.08 8.43a23.33 23.33 0 01-24.55 0c-3.14-2.16-5.09-5.14-5.09-8.43s1.95-6.26 5.09-8.42a23.33 23.33 0 0124.55 0c3.14 2.16 5.08 5.13 5.08 8.42z"/><path class="cls-2" d="M184.25 117.36c1.3-.9 5.42-1.62 7.16-2.1a44.07 44.07 0 017.75-.69c3.84 0 12.4 1.07 14.92 2.79s4.07 5.79 4.07 8.42-1.56 6.69-4.07 8.42S203 137 199.16 137a44.07 44.07 0 01-7.75-.69c-1.74-.49-5.86-1.21-7.16-2.1-2.52-1.73-4.07-5.79-4.07-8.42s1.55-6.7 4.07-8.43z"/><path class="cls-2" d="M181.57 118.61c1-.67 7.26-1.21 8.56-1.57a77.62 77.62 0 019-.52c2.88 0 15.67.8 17.56 2.09s3.05 6.44 3.05 8.41-1.17 7.12-3.05 8.42-14.68 2.09-17.56 2.09a79.9 79.9 0 01-9-.52c-1.3-.36-7.58-.9-8.56-1.57-1.88-1.3-3-6.44-3-8.42s1.12-7.11 3-8.41z"/><path class="cls-2" d="M178.9 119.86c.65-.44 9.08-.8 9.95-1s9.33-.34 10.25-.34c1.92 0 18.94.53 20.2 1.39s2 7.09 2 8.41-.78 7.54-2 8.4-18.28 1.4-20.2 1.4c-.92 0-9.44-.12-10.25-.35s-9.3-.6-9.95-1.05c-1.26-.86-2-7.08-2-8.4s.74-7.59 2-8.46z"/><path d="M176.23 121.12c.32-.23 10.91-.41 11.34-.53s11-.17 11.5-.17c1 0 22.21.26 22.84.7s1 7.74 1 8.39-.39 8-1 8.4-21.89.7-22.84.7c-.46 0-11.09-.06-11.5-.17s-11-.3-11.34-.53c-.63-.43-1-7.74-1-8.4s.37-7.96 1-8.39z" fill="#85d7e0"/><path class="cls-2" d="M105.07 121.09A12.77 12.77 0 01100 131a20.39 20.39 0 01-24.55 0 12.21 12.21 0 010-19.82 20.43 20.43 0 0124.55 0 12.79 12.79 0 015.07 9.91z"/><path class="cls-2" d="M72.77 112.66c1.3-1.06 5.42-1.91 7.16-2.48a37.5 37.5 0 017.75-.81c3.84 0 12.41 1.26 14.92 3.29s4.07 6.8 4.07 9.9-1.56 7.87-4.07 9.9-11.08 3.28-14.92 3.28a36.82 36.82 0 01-7.75-.81c-1.74-.57-5.86-1.41-7.16-2.47-2.52-2-4.07-6.81-4.07-9.9s1.55-7.88 4.07-9.9z"/><path class="cls-2" d="M70.09 114.13c1-.79 7.26-1.43 8.56-1.86s7.62-.6 9-.6c2.88 0 15.67.94 17.56 2.46s3.05 7.57 3.05 9.89-1.17 8.38-3.05 9.9-14.68 2.46-17.56 2.46c-1.38 0-7.79-.21-9-.61s-7.58-1.06-8.56-1.85c-1.88-1.52-3-7.57-3-9.9s1.12-8.37 3-9.89z"/><path class="cls-2" d="M67.42 115.6c.65-.53 9.08-.95 10-1.23s9.28-.37 10.2-.37c1.92 0 18.94.63 20.2 1.64s2 8.34 2 9.89-.78 8.87-2 9.89S89.54 137 87.62 137c-.92 0-9.44-.15-10.25-.41s-9.3-.7-10-1.23c-1.26-1-2-8.34-2-9.89s.79-8.85 2.05-9.87z"/><path class="cls-2" d="M64.75 117.07c.32-.26 10.91-.47 11.34-.61s11-.21 11.5-.21c1 0 22.21.32 22.84.82s1 9.11 1 9.88-.39 9.38-1 9.89-21.88.82-22.84.82c-.46 0-11.09-.08-11.5-.21s-11-.35-11.34-.61c-.63-.51-1-9.11-1-9.89s.37-9.37 1-9.88zm-15.42 5.3a12.79 12.79 0 01-5.08 9.91 19.61 19.61 0 01-12.25 4.1 19.6 19.6 0 01-12.27-4.1 12.21 12.21 0 010-19.82A19.55 19.55 0 0132 108.35a19.56 19.56 0 0112.28 4.11 12.77 12.77 0 015.05 9.91z"/><path class="cls-2" d="M17 113.93c1.3-1.06 5.42-1.9 7.16-2.47a36.82 36.82 0 017.75-.81c3.84 0 12.41 1.25 14.92 3.28s4.07 6.81 4.07 9.9-1.56 7.88-4.07 9.91S35.78 137 31.94 137a37.5 37.5 0 01-7.75-.81c-1.74-.57-5.86-1.42-7.16-2.47-2.52-2-4.07-6.81-4.07-9.91s1.55-7.81 4.04-9.88z"/><path class="cls-2" d="M14.35 115.4c1-.79 7.26-1.42 8.56-1.85s7.62-.61 9-.61c2.88 0 15.67.94 17.56 2.46s3.05 7.58 3.05 9.9-1.17 8.37-3.05 9.89-14.68 2.47-17.56 2.47c-1.38 0-7.79-.22-9-.61s-7.58-1.06-8.56-1.86c-1.88-1.52-3-7.57-3-9.89s1.12-8.38 3-9.9z"/><path class="cls-2" d="M11.68 116.87c.65-.52 9.08-1 10-1.23s9.33-.41 10.25-.41c1.92 0 18.94.63 20.2 1.64s2 8.34 2 9.89-.78 8.88-2 9.89-18.28 1.64-20.2 1.64c-.92 0-9.44-.14-10.25-.4s-9.3-.71-9.95-1.24c-1.26-1-2-8.34-2-9.89s.69-8.87 1.95-9.89z"/><path class="cls-2" d="M9 118.35c.32-.27 10.91-.48 11.34-.62s11-.2 11.5-.2c1 0 22.21.31 22.84.82s1 9.1 1 9.88-.38 9.37-1 9.88-21.88.82-22.84.82c-.46 0-11.09-.07-11.5-.2s-11-.36-11.34-.62c-.63-.51-1-9.11-1-9.88s.38-9.38 1-9.88z"/><path class="cls-2" d="M57.3 139.57H6.33v-19.75H57.3v19.75zm4.84-19.75h50.96v19.75H62.14zm55.8 0h50.96v19.75h-50.96zm55.8 0h50.96v19.75h-50.96zm55.81 0h50.96v19.75h-50.96zm55.8 0h50.96v19.75h-50.96zM36.67 94.05H11L10.1 70a4.78 4.78 0 014.78-5h17.95a4.79 4.79 0 014.78 5zM79 94H53.35l-.93-24a4.78 4.78 0 014.78-5h17.94a4.78 4.78 0 014.78 5zm42.31 0H95.67l-.94-24a4.79 4.79 0 014.78-5h17.95a4.79 4.79 0 014.78 5zm42.31-.08H138l-.93-24a4.78 4.78 0 014.78-5h17.95a4.79 4.79 0 014.78 5zm42.32-.05H180.3l-.93-24a4.77 4.77 0 014.78-5h17.94a4.77 4.77 0 014.78 5zm42.32-.04h-25.64l-.94-24a4.79 4.79 0 014.78-5h17.95a4.79 4.79 0 014.78 5zm42.31-.05h-25.64l-.93-24a4.77 4.77 0 014.78-5h18a4.79 4.79 0 014.78 5zm42.32-.04h-25.64l-.93-24a4.78 4.78 0 014.78-5H329a4.78 4.78 0 014.78 5z"/><g clip-path="url(#clip-path)"><path class="cls-2" d="M45.33 48.79H29.06a2.2 2.2 0 01-2.38-1.95V21.06c0-1.65 2.36-2.57 3.89-1.5a12 12 0 007.9 2.05 11.31 11.31 0 005.33-1.93c1.55-1.07 3.9-.16 3.9 1.49v25.67a2.19 2.19 0 01-2.37 1.95z"/><ellipse class="cls-2" cx="37.19" cy="16.46" rx="6.69" ry="3.34"/><path class="cls-2" d="M123.57 49H107.3a2.19 2.19 0 01-2.37-2V21.3c0-1.65 2.35-2.57 3.89-1.5a12 12 0 007.89 2.05 11.31 11.31 0 005.34-1.93c1.54-1.07 3.9-.16 3.9 1.49v25.67a2.2 2.2 0 01-2.38 1.92z"/><ellipse class="cls-2" cx="115.44" cy="16.7" rx="6.69" ry="3.34"/><path class="cls-2" d="M201.82 49.27h-16.27a2.2 2.2 0 01-2.38-2V21.54c0-1.65 2.36-2.57 3.89-1.51a12 12 0 007.9 2 11.26 11.26 0 005.33-1.92c1.55-1.07 3.9-.17 3.9 1.49v25.72a2.19 2.19 0 01-2.37 1.95z"/><ellipse class="cls-2" cx="193.68" cy="16.94" rx="6.69" ry="3.34"/><path class="cls-2" d="M280.06 49.51h-16.27a2.2 2.2 0 01-2.37-1.95V21.77c0-1.65 2.36-2.56 3.89-1.5a11.91 11.91 0 007.89 2.05 11.31 11.31 0 005.34-1.93c1.54-1.06 3.9-.16 3.9 1.5v25.67a2.2 2.2 0 01-2.38 1.95z"/><ellipse class="cls-2" cx="271.93" cy="17.18" rx="6.69" ry="3.34"/><path class="cls-2" d="M358.31 49.75H342a2.21 2.21 0 01-2.38-2V22c0-1.65 2.36-2.57 3.89-1.5a12 12 0 007.9 2 11.27 11.27 0 005.33-1.93c1.55-1.06 3.91-.16 3.91 1.5V47.8a2.21 2.21 0 01-2.34 1.95z"/><ellipse class="cls-2" cx="350.17" cy="17.42" rx="6.69" ry="3.34"/><path class="cls-2" d="M8.36 48.79H-7.9a2.19 2.19 0 01-2.38-1.95V21.06c0-1.65 2.36-2.57 3.89-1.5a12 12 0 007.89 2.05 11.31 11.31 0 005.34-1.93c1.54-1.07 3.9-.16 3.9 1.49v25.67a2.19 2.19 0 01-2.38 1.95z"/><ellipse class="cls-2" cx=".23" cy="16.46" rx="6.69" ry="3.34"/><path class="cls-2" d="M86.61 49H70.34a2.2 2.2 0 01-2.38-2V21.3c0-1.65 2.36-2.57 3.9-1.5a12 12 0 007.89 2.05 11.35 11.35 0 005.34-1.93c1.54-1.07 3.9-.16 3.9 1.49v25.67A2.2 2.2 0 0186.61 49z"/><ellipse class="cls-2" cx="78.48" cy="16.7" rx="6.69" ry="3.34"/><path class="cls-2" d="M164.86 49.27h-16.27a2.19 2.19 0 01-2.38-2V21.54c0-1.65 2.36-2.57 3.89-1.51a11.92 11.92 0 007.89 2 11.3 11.3 0 005.34-1.92c1.54-1.07 3.9-.17 3.9 1.49v25.72a2.19 2.19 0 01-2.37 1.95z"/><ellipse class="cls-2" cx="156.72" cy="16.94" rx="6.69" ry="3.34"/><path class="cls-2" d="M243.1 49.51h-16.27a2.2 2.2 0 01-2.37-1.95V21.77c0-1.65 2.35-2.56 3.89-1.5a11.91 11.91 0 007.89 2.05 11.31 11.31 0 005.34-1.93c1.54-1.06 3.9-.16 3.9 1.5v25.67a2.21 2.21 0 01-2.38 1.95z"/><ellipse class="cls-2" cx="234.97" cy="17.18" rx="6.69" ry="3.34"/><path class="cls-2" d="M321.35 49.75h-16.27a2.2 2.2 0 01-2.38-2V22c0-1.65 2.36-2.57 3.89-1.5a11.93 11.93 0 007.9 2 11.31 11.31 0 005.33-1.93c1.55-1.06 3.9-.16 3.9 1.5V47.8a2.2 2.2 0 01-2.37 1.95z"/><ellipse class="cls-2" cx="313.21" cy="17.42" rx="6.69" ry="3.34"/></g><g clip-path="url(#clip-path-2)"><path class="cls-6" d="M121.59 54.8c-1-2.77-2.09-5.45-3.15-8.06a8.6 8.6 0 00-10.19-5 192.93 192.93 0 00-50.7 21.87 8.32 8.32 0 00-3.94 8.12 53.5 53.5 0 005 17.06 54.25 54.25 0 003 5.35 9.11 9.11 0 009.63 4 151.63 151.63 0 0031-10.42 151.73 151.73 0 0017.29-9.41 12.41 12.41 0 005.19-14.39q-1.41-4.5-3.13-9.12z"/><path class="cls-7" d="M61.68 91.41a9.14 9.14 0 009.63 4 151.11 151.11 0 0031-10.43 151.73 151.73 0 0017.29-9.41 12.45 12.45 0 005.74-9.13 13 13 0 00-.55-2.57q-1.49-4.44-3.2-9.06c-1-2.77-2.09-5.45-3.15-8.06a8.6 8.6 0 00-10.19-5 192.93 192.93 0 00-50.7 21.87 8.37 8.37 0 00-3.9 5.77 53.6 53.6 0 005 16.72 52 52 0 003.03 5.3z"/><path d="M119.56 31.81c-4.49-2.72-11.1-.31-13.22 4.51-1.35 3.08-1 7.45 2 10.08a9.38 9.38 0 0015.22-5.62 9 9 0 00-4-8.97z" fill="#1caf4d"/><path class="cls-9" d="M120.2 29.12l-5.79 12.54-3.34-2.38a1.39 1.39 0 00-1.94.34 1.38 1.38 0 00.34 1.91l4 2.85a2.17 2.17 0 003.23-.87l6-13.27a1.37 1.37 0 00-.66-1.8 1.37 1.37 0 00-1.84.68z"/><path d="M84.76 71.6c-2.12-5.24-8.14-8.49-13.61-6.94a11.56 11.56 0 00-7.89 9.39 11.8 11.8 0 005.38 11.86c.38.23 4.9 2.87 9.72.93a12 12 0 006.4-15.24z" fill="#117ac7"/><path class="cls-6" d="M84 73.38c-2.12-5.24-8.14-8.49-13.61-6.94a11 11 0 00-6.74 5.8 11.87 11.87 0 005 13.67c.38.23 4.9 2.87 9.72.93a11.57 11.57 0 005.91-5.67 11.48 11.48 0 00-.28-7.79z"/><path class="cls-9" d="M79.55 77.45a1.63 1.63 0 00-1.13-.51v-.07L76.62 69a.4.4 0 00-.47-.3.39.39 0 00-.3.48l.5 2.22-7.86 4.4a.42.42 0 00-.19.28.39.39 0 00.09.33l3.58 4a1.65 1.65 0 00-.36 1 1.6 1.6 0 00.44 1.14 1.63 1.63 0 001.13.51 1.62 1.62 0 001.61-1.57 1.59 1.59 0 00-.45-1.15 1.51 1.51 0 00-.73-.43l3.2-1.79a2 2 0 00-.08.43 1.61 1.61 0 001.57 1.65 1.64 1.64 0 001.11-.44 1.62 1.62 0 00.5-1.13 1.6 1.6 0 00-.36-1.18zm-3-5.27l1 4.59-1.17.65-1.49-4.33zm-2.15 6.37l-2.57-3.73 2.39-1.34 1.49 4.34zm-3.26-3.34l2.56 3.73-1.31.73-3.07-3.44zM74 81.43a.77.77 0 01-.25.57.81.81 0 01-.58.22.77.77 0 01-.57-.25.81.81 0 01.59-1.38.82.82 0 01.57.26.78.78 0 01.24.58zm5.16-2.86a.77.77 0 01-.25.57.86.86 0 01-.58.23.82.82 0 01-.57-.26.78.78 0 01-.22-.58.77.77 0 01.25-.57.82.82 0 01.56-.22.77.77 0 01.65.26.8.8 0 01.22.58z"/><path d="M87 61.91l12.03-4.9m-10.26 9.24l24.06-9.8M92.6 75.65l24.06-9.8m-25.99 5.08l20.39-8.31" stroke="#fff" stroke-width="1.59" stroke-linecap="round" stroke-miterlimit="10" fill="none"/><path class="cls-12" d="M206.61 40.13a19.1 19.1 0 01-2.32-7.8c-2.88-9.18-10.29-14.59-16.71-13.73-4 .53-6.72 3.31-8 4.88-.73-.12-6.93-1-11.58 3.46a13.32 13.32 0 00-3.32 13.66c1.71 4.7 5.43 4.22 6.41 8.24 1.37 5.64-5.25 9.09-3.66 14.64.78 2.75 2.58 2.5 5.18 6 4.82 6.47 1.44 11 4.88 16.06 4.5 6.56 17.05 8.66 24.61 3.77a14.18 14.18 0 005.48-6.31c2.24-5.4-1.41-7.9.3-13.42s6-5.42 7.43-11.59a14.92 14.92 0 00-.11-6.81c-1.32-5.08-5.59-5.67-8.59-11.05z"/><path class="cls-13" d="M219.46 139.27a7 7 0 00-2.26-.26l-28-47.57c-1.33 1.59-2.67 3.17-4 4.75 3.52 7.12 6.66 13 9.05 17.29 3.32 6 6.46 10.34 12.13 19.41 3.08 4.92 6.6 10.19 12.12 12 2 .65 5.09 0 5.06-2.09-.04-1.31-2.1-2.95-4.1-3.53z"/><path class="cls-7" d="M225.4 278.14c-2-3.94-10.11-21.93-27.85-64.08a42.49 42.49 0 01-3.31-15L190.7 98.63l-13.23-1.4c-7.61 30.39-14 70.76-10.81 116.15 0 0-8.8 10.56 24 78.88.58 1.21 1.26 2.52 2.5 3a5.5 5.5 0 003.65-.25 251.48 251.48 0 0026-9.55 5.86 5.86 0 003.18-2.37c1.01-1.9-.26-4.28-.59-4.95z"/><path fill="#0794d3" d="M190.73 99.63l-28.78 110.74 10.66 38.07 18.54-130.2.19-1.37-.61-17.24z"/><path class="cls-15" d="M194.32 71.45c-.13-3-.46-6.09-2.1-8.58a9.07 9.07 0 00-3.93-3.63 5.34 5.34 0 00-2.9-.44 6.17 6.17 0 00-3.85 2.75 20.19 20.19 0 00-3.68 8.86c-1.82 12.88-3.1 27.05-3.26 28.87v.35a28.46 28.46 0 0113.53-.82 3.32 3.32 0 002.6-.18 3.09 3.09 0 00.94-1.8 86.85 86.85 0 002.65-25.38z"/><path class="cls-16" d="M191.28 64.41l-16.66 24.9a8.06 8.06 0 000 1.88 8.33 8.33 0 00.42 1.9 3.9 3.9 0 00.68 1 7.41 7.41 0 001.38 1 8.19 8.19 0 001.46.77c1.86.7 5.7-5.07 9.8-10.67 9.7-13.33 2.92-20.78 2.92-20.78z"/><path class="cls-13" d="M186.69 53.3l-3.78-1c0 2.5.09 5 .13 7.49a17.2 17.2 0 00-1.76 2.21 18.56 18.56 0 00-1.2 2 18.41 18.41 0 004.21-2.24 19.22 19.22 0 002.26-1.88q.06-3.31.14-6.58z"/><path class="cls-7" d="M190.7 98.63h-16.1C137.18 207 113.54 278.18 111.44 284.78c-.46 1.44-1.41 4.69.17 7.19 1.23 1.95 3.66 2.68 5.89 3.24q16.71 4.23 33.74 7c2.12.35 4.36.67 6.38-.07 4.59-1.66 5.9-8 6.46-10.53 2.2-10.03 10.78-82.79 26.62-192.98z"/><path class="cls-17" d="M182.14 91.07c-5.27-2.71-6.72-8.54-7-9.76q-.33 6-.47 12.19c0 1.72-.06 3.42-.08 5.11h10.5c.33-2.11.67-4.22 1-6.33a12.5 12.5 0 01-3.95-1.21z"/><path d="M192.42 92.68a24 24 0 01-4.16.42 22.72 22.72 0 01-4.94-.49c-.17 2-.35 3.89-.52 5.84 1.46.14 3 .23 4.71.25 1.11 0 2.18 0 3.19-.07" stroke="#c1d046" stroke-width=".8" stroke-linecap="round" stroke-miterlimit="10" fill="none"/><path d="M174.72 92.09a7.75 7.75 0 00.28 1 3.9 3.9 0 00.68 1 7.41 7.41 0 001.38 1 8.19 8.19 0 001.46.77c1.1.41 2.89-1.44 5-4.18a11.67 11.67 0 01-1.4-.59 12.76 12.76 0 01-5.22-5.19l-2.08 3.1c-.04 1-.07 2.06-.1 3.09z" fill="#bac435"/><path class="cls-17" d="M174.6 98.61c-3.45 8.88-6.4 15.81-8.09 19.71 0 0-29.84 68.79-48.27 121.55a4.33 4.33 0 00-.1 3.06 5 5 0 001.89 2 135.45 135.45 0 0018.82 11.22Q162 177.39 185.1 98.62z"/><path class="cls-16" d="M175.66 81.91a42 42 0 00-3.16-6l-4.35-.91A18.67 18.67 0 00170 86.12c2.28 4.32 6.62 7.91 8 7.15 1.43-.85-.8-7.77-2.34-11.36z"/><path d="M172.07 89.28l4.85-3.4-1.1-3.29-5.17 4.71a20.76 20.76 0 001.42 1.98z" fill="#cc451b"/><path class="cls-13" d="M178.45 67.16L150 98.26a147 147 0 01-26.07-3.16 147.11 147.11 0 01-24.49-7.5c-1.8-3.9-4.28-6-5.93-5.54a2.65 2.65 0 00-1.58 1.78c-.77 2.56 2.54 5.71 3.85 7l.66.59a158.9 158.9 0 0018.7 8.46c16.11 6.08 28.92 10.72 39.91 5.31 1-.49 2.72-1.42 8.38-6.79a187.71 187.71 0 0022.19-25.21z"/><path class="cls-15" d="M190.18 63.25c-2.48-1.93-6-1-7.2-.73-1.47.38-3.19 1.12-8.21 5.77-1.75 1.62-4.05 3.85-6.62 6.66a25.79 25.79 0 013.26 3.21 29 29 0 016.52 15.11 55.89 55.89 0 0011.21-12.2 20.38 20.38 0 003-6.13 14.17 14.17 0 00.46-2.49c.18-1.45.69-6.79-2.42-9.2z"/><path class="cls-13" d="M196.87 29.29a16.31 16.31 0 00-9.46-6.91 16.56 16.56 0 00-16.24 5.43 17.14 17.14 0 00-1.78 19.46c4.53 7.94 13.91 9.2 17.54 8.42a15.75 15.75 0 003.53-1.24 16.27 16.27 0 004.25-3.11 18.1 18.1 0 002.16-22.05z"/><path class="cls-12" d="M204.29 32.33c-.2-1.62-1.1-7.28-5.84-11.1-5.61-4.51-14.3-4.63-21.44 0a11.16 11.16 0 00-5.56.75c-4.31 1.79-7.83 6.66-7.06 11.27a8.48 8.48 0 001.71 3.8 48.88 48.88 0 004.5-4.16 48.4 48.4 0 005.66-7.16c1 1.69 5.88 9.84 14.58 11a15.92 15.92 0 004.64-.09z"/><path class="cls-7" d="M161.55 39.31c1.87.14 3.75.25 5.62.34.65 0 .64-1 0-1-1.87-.09-3.75-.2-5.62-.34-.64-.05-.64.95 0 1zm31.05-3.03c2.63-.31 5.2-1 7.82-1.34a.51.51 0 00.5-.49c0-.24-.23-.54-.5-.5-2.62.35-5.19 1-7.82 1.34-.63.07-.64 1.07 0 1z"/><path class="cls-7" d="M173.76 32.35a6.17 6.17 0 00-3.85-2.3 7.18 7.18 0 00-5.48 2 10 10 0 00-3.18 9.51 7.83 7.83 0 007.63 6.38c3.45 0 5.9-2.41 6.74-5.61a11.64 11.64 0 00-1.86-9.95c-.4-.5-1.1.21-.7.71 2.94 3.66 3 12.07-2.41 13.62a6.8 6.8 0 01-8.08-4.11 9.1 9.1 0 011.15-8.33A7.53 7.53 0 01168.8 31a5 5 0 014.26 2c.41.55 1.11-.16.7-.65zM193 35.54a10.12 10.12 0 00-1.64-4.67 6.78 6.78 0 00-5.86-2.74 8.44 8.44 0 00-7.54 6.07 10.7 10.7 0 001.22 9.64 7.83 7.83 0 0011.7.58c2.11-2.35 2.53-5.86 2.12-8.88-.08-.63-1-.37-1 .26a17 17 0 01.08 2.34 10 10 0 01-1 4.14A6.76 6.76 0 01180.62 44c-4.29-4-2.47-13.29 3.49-14.69a6.06 6.06 0 016.35 2.05A9.35 9.35 0 01192 35.8c.09.63 1.05.36 1-.26z"/><path class="cls-7" d="M176.16 36.43c0-.06.08-.2 0 0a1.06 1.06 0 01.11-.21c0-.08-.08.1 0 0l.06-.06s-.11.08 0 0h.06c.11-.06-.09 0 0 0h.15-.13.24-.14a.65.65 0 01.2 0s.09 0 0 0l.09.05s.12.11 0 0a.6.6 0 00.08.08l.08.08v.07a.5.5 0 00.86-.5 1.57 1.57 0 00-1.65-.74 1.41 1.41 0 00-1 1 .5.5 0 00.35.62.51.51 0 00.61-.35z"/><path class="cls-13" d="M203.09 35c-1.65-1-4.26-.66-6.52 1.15a5.74 5.74 0 00-2.31 4.26 5.1 5.1 0 001.16 3.45 5.46 5.46 0 004.77 1.7c3.09-.49 5.12-3.88 4.86-6.81a5 5 0 00-1.96-3.75z"/></g></svg>